<svg width="16" height="9" viewBox="0 0 16 9" fill="none" xmlns="http://www.w3.org/2000/svg">
<path fill-rule="evenodd" clip-rule="evenodd" d="M10.1833 8.56833C10.1251 8.51027 10.0789 8.4413 10.0474 8.36537C10.0159 8.28944 9.99964 8.20804 9.99964 8.12583C9.99964 8.04362 10.0159 7.96221 10.0474 7.88628C10.0789 7.81035 10.1251 7.74138 10.1833 7.68332L13.4921 4.37577L10.1833 1.06821C10.1251 1.0101 10.0791 0.941114 10.0476 0.865188C10.0162 0.789263 9.99996 0.707886 9.99996 0.625704C9.99996 0.543523 10.0162 0.462147 10.0476 0.386221C10.0791 0.310296 10.1251 0.241309 10.1833 0.183198C10.2414 0.125086 10.3104 0.0789905 10.3863 0.0475412C10.4622 0.0160919 10.5436 -9.48035e-05 10.6258 -9.47963e-05C10.7079 -9.47892e-05 10.7893 0.0160919 10.8652 0.0475413C10.9412 0.0789906 11.0102 0.125086 11.0683 0.183198L14.8183 3.93326C14.8765 3.99132 14.9227 4.06029 14.9542 4.13622C14.9857 4.21215 15.002 4.29356 15.002 4.37577C15.002 4.45798 14.9857 4.53938 14.9542 4.61531C14.9227 4.69124 14.8765 4.76021 14.8183 4.81827L11.0683 8.56833C11.0102 8.62654 10.9412 8.67272 10.8653 8.70423C10.7894 8.73573 10.708 8.75195 10.6258 8.75195C10.5436 8.75195 10.4622 8.73573 10.3862 8.70423C10.3103 8.67272 10.2413 8.62654 10.1833 8.56833Z" fill="#053365"/>
<path fill-rule="evenodd" clip-rule="evenodd" d="M14.375 4.37597C14.375 4.54173 14.3092 4.7007 14.1919 4.81792C14.0747 4.93513 13.9158 5.00098 13.75 5.00098L0.624777 5.00098C0.459014 5.00098 0.30004 4.93513 0.182828 4.81791C0.0656157 4.7007 -0.000232656 4.54173 -0.000232642 4.37597C-0.000232627 4.2102 0.0656157 4.05123 0.182828 3.93402C0.30004 3.8168 0.459014 3.75095 0.624777 3.75095L13.75 3.75096C13.9158 3.75096 14.0747 3.8168 14.1919 3.93402C14.3092 4.05123 14.375 4.2102 14.375 4.37597Z" fill="#053365"/>
</svg>
