<svg width="19" height="19" viewBox="0 0 19 19" fill="none" xmlns="http://www.w3.org/2000/svg">
<path fill-rule="evenodd" clip-rule="evenodd" d="M18.1056 6.31583H0V15.6027C0 16.2663 0.263632 16.9029 0.733507 17.372C1.20254 17.8419 1.83922 18.1055 2.50278 18.1055H15.6026C16.2662 18.1055 16.9029 17.8418 17.3719 17.372C17.8418 16.9029 18.1054 16.2663 18.1054 15.6027L18.1056 6.31583ZM13.7798 14.3536L13.0842 8.4589C12.9967 7.71691 12.3676 7.15779 11.6206 7.15779H6.48521C5.73831 7.15779 5.10925 7.71691 5.02155 8.4589L4.32597 14.3536C4.27635 14.7713 4.40845 15.1906 4.68814 15.5057C4.96771 15.8198 5.36853 15.9999 5.78963 15.9999H12.3159C12.737 15.9999 13.1378 15.8198 13.4174 15.5057C13.697 15.1907 13.8292 14.7713 13.7796 14.3536H13.7798ZM0.000360709 5.05266H18.106V2.50278C18.106 1.83918 17.8423 1.20254 17.3725 0.733507C16.9034 0.263606 16.2668 0 15.6032 0H2.50336C1.83976 0 1.20312 0.263632 0.734084 0.733507C0.264184 1.20254 0.000577409 1.83922 0.000577409 2.50278L0.000360709 5.05266ZM3.1583 2.31583C3.62311 2.31583 4.00036 2.69309 4.00036 3.1579C4.00036 3.62271 3.62311 3.99997 3.1583 3.99997C2.69348 3.99997 2.31623 3.62271 2.31623 3.1579C2.31623 2.69309 2.69348 2.31583 3.1583 2.31583ZM5.68464 2.31583C6.14946 2.31583 6.52671 2.69309 6.52671 3.1579C6.52671 3.62271 6.14946 3.99997 5.68464 3.99997C5.21983 3.99997 4.84258 3.62271 4.84258 3.1579C4.84258 2.69309 5.21983 2.31583 5.68464 2.31583ZM8.21099 2.31583C8.6758 2.31583 9.05306 2.69309 9.05306 3.1579C9.05306 3.62271 8.6758 3.99997 8.21099 3.99997C7.74618 3.99997 7.36892 3.62271 7.36892 3.1579C7.36892 2.69309 7.74618 2.31583 8.21099 2.31583Z" fill="white"/>
<path fill-rule="evenodd" clip-rule="evenodd" d="M10.1066 10.3157C10.1066 10.4504 10.0627 10.5751 9.98955 10.6836C9.80346 10.9581 9.44974 11.1274 9.05401 11.1274C8.65828 11.1274 8.30455 10.9581 8.11847 10.6836C8.04516 10.5749 8.00146 10.4503 8.00146 10.3157C8.00146 9.96703 7.71851 9.68408 7.36987 9.68408C7.02122 9.68408 6.73828 9.96703 6.73828 10.3157C6.73828 10.7073 6.85868 11.0744 7.0717 11.3911C7.46913 11.9797 8.20433 12.3906 9.05401 12.3906C9.9037 12.3906 10.6389 11.9796 11.0363 11.3911C11.2493 11.0744 11.3697 10.7073 11.3697 10.3157C11.3697 9.96703 11.0868 9.68408 10.7382 9.68408C10.3895 9.68408 10.1066 9.96703 10.1066 10.3157Z" fill="white"/>
</svg>
