<svg width="40" height="40" viewBox="0 0 40 40" fill="none" xmlns="http://www.w3.org/2000/svg">
<path d="M0 3C0 1.34315 1.34315 0 3 0H29.1222C30.3058 0 31.3788 0.695924 31.8614 1.77665L39.4537 18.7767C39.8013 19.5552 39.8013 20.4448 39.4536 21.2233L31.8614 38.2234C31.3788 39.3041 30.3058 40 29.1222 40H3C1.34315 40 0 38.6569 0 37V3Z" fill="#053365"/>
<path fill-rule="evenodd" clip-rule="evenodd" d="M9 14V26C9 28.2091 10.7909 30 13 30H17.3431C17.6509 30 17.955 29.9645 18.25 29.8959V26C18.25 23.3766 20.3766 21.25 23 21.25H26.8959C26.9645 20.955 27 20.6509 27 20.3431V14C27 11.7909 25.2091 10 23 10H13C10.7909 10 9 11.7909 9 14ZM20.1716 28.8284C20.039 28.961 19.898 29.0833 19.75 29.1949V26C19.75 24.2051 21.2051 22.75 23 22.75H26.1949C26.0833 22.898 25.961 23.039 25.8284 23.1716L20.1716 28.8284ZM21.5645 14.4939C21.8372 14.1822 21.8056 13.7083 21.4939 13.4356C21.1822 13.1628 20.7084 13.1944 20.4356 13.5061L17.5657 16.786C17.4776 16.8867 17.3258 16.9002 17.2214 16.8166L15.4685 15.4144C15.1451 15.1556 14.6731 15.208 14.4144 15.5315C14.1556 15.8549 14.2081 16.3269 14.5315 16.5857L16.2843 17.9879C17.0156 18.5729 18.0779 18.4786 18.6946 17.7738L21.5645 14.4939Z" fill="white"/>
</svg>
