<svg width="49" height="73" viewBox="0 0 49 73" fill="none" xmlns="http://www.w3.org/2000/svg">
<g clip-path="url(#clip0_805_50)">
<path d="M20.4406 72.9959C16.5573 73.1082 7.2571 71.6066 1.75739 57.1397C0.186642 53.0052 -3.37345 38.975 8.35124 27.6527C8.66207 27.3574 9.02264 27.5737 9.37078 27.3033C9.61953 27.1811 9.88723 27.1023 10.1624 27.0704C11.2068 26.7959 12.6822 26.7709 13.6893 27.8191C13.6893 27.8191 15.6206 29.3249 13.8095 31.0386C13.8095 31.0386 7.30269 34.2789 8.77397 36.0301C12.2263 40.1896 10.8918 39.4201 22.1772 47.8473C25.9072 50.6259 31.411 57.277 31.1789 64.2401C31.0878 66.8814 29.7408 71.2656 22.4093 72.8046C21.7582 72.9139 21.1005 72.9779 20.4406 72.9959Z" fill="url(#paint0_linear_805_50)"/>
<path d="M9.05999 36.4462C9.05999 36.4462 3.45254 29.2377 10.5934 26.3093C12.1062 25.6896 15.3679 27.4823 14.4934 30.3857C13.9878 32.0703 9.6941 32.4696 9.05999 36.4462Z" fill="url(#paint1_linear_805_50)"/>
<path d="M37.3877 52.772C37.9907 54.1544 38.1594 55.6885 37.8714 57.1696C37.5834 58.6508 36.8522 60.0086 35.7755 61.0619C35.0585 61.7815 34.1633 62.4221 33.3717 63.2457C30.8601 65.8621 33.7074 70.97 38.7595 68.3495C42.5185 66.3945 46.3811 57.2102 38.1171 53.0548L37.3877 52.772Z" fill="url(#paint2_linear_805_50)"/>
<path d="M5.67023 31.3173C5.91475 30.4854 4.14921 37.5858 4.65069 43.38C5.62878 54.6607 11.5139 67.888 21.2285 69.8971C25.9615 70.8746 31.4654 66.4072 29.9858 61.7194C27.3333 53.3088 7.19125 41.4375 5.83601 32.3822C5.82357 32.299 5.67023 31.3173 5.67023 31.3173Z" fill="#48C4EB"/>
<path d="M5.69008 31.1424C5.74396 30.8845 5.30879 34.4701 11.4923 40.6595C13.7303 42.9015 17.564 45.3265 21.5965 48.4461C25.9814 51.8362 33.7025 62.6759 28.6131 67.0975C28.6131 67.0975 25.3887 69.951 23.2253 64.3647C23.2253 64.3647 20.693 56.628 10.2241 45.106C8.08972 42.7559 5.06012 36.7869 5.44555 33.1307C5.49529 32.6274 5.69008 31.1424 5.69008 31.1424Z" fill="#85D0F0"/>
<path d="M23.424 0C23.424 0 17.5803 4.34256 23.7348 16.2222C25.0818 18.8219 21.6999 22.4615 19.0723 19.2379C18.3139 18.3103 18.1398 12.9986 18.1398 12.9986C18.1398 12.9986 4.46305 32.486 38.4477 55.3469C40.4619 56.7029 42.5507 58.6745 42.4636 61.5155C42.4222 63.0337 41.9414 64.161 39.6454 67.7299C39.6454 67.7299 62.8793 51.3828 36.1848 23.8134C35.3559 22.9815 33.2836 21.6296 33.8017 15.4943C33.8017 15.4943 29.5288 17.6281 32.5584 28.3889C32.72 28.9754 32.9728 34.2954 27.958 33.867C26.0391 33.7006 22.5992 32.1366 24.7875 26.4131C25.4879 24.5413 26.6359 22.7735 29.0107 19.5499C29.0107 19.5499 30.6685 16.9501 29.4252 14.4544C27.7674 11.1268 23.8633 10.245 23.2085 0.935897C23.2434 0.616523 23.3158 0.302395 23.424 0V0Z" fill="url(#paint3_linear_805_50)"/>
</g>
<defs>
<linearGradient id="paint0_linear_805_50" x1="0.000141044" y1="49.9562" x2="31.1831" y2="49.9562" gradientUnits="userSpaceOnUse">
<stop stop-color="#72CEFB"/>
<stop offset="0.7" stop-color="#0067BA"/>
</linearGradient>
<linearGradient id="paint1_linear_805_50" x1="6.96704" y1="31.3174" x2="14.6384" y2="31.3174" gradientUnits="userSpaceOnUse">
<stop stop-color="#0079A4"/>
<stop offset="1" stop-color="#72CEFB"/>
</linearGradient>
<linearGradient id="paint2_linear_805_50" x1="32.4433" y1="60.9247" x2="43.02" y2="60.9247" gradientUnits="userSpaceOnUse">
<stop stop-color="#FF8600"/>
<stop offset="1" stop-color="#982A05"/>
</linearGradient>
<linearGradient id="paint3_linear_805_50" x1="15.421" y1="33.867" x2="48.9995" y2="33.867" gradientUnits="userSpaceOnUse">
<stop stop-color="#FF8600"/>
<stop offset="1" stop-color="#DA2A00"/>
</linearGradient>
<clipPath id="clip0_805_50">
<rect width="49" height="73" fill="white"/>
</clipPath>
</defs>
</svg>
