<svg width="12" height="21" viewBox="0 0 12 21" fill="none" xmlns="http://www.w3.org/2000/svg">
<path d="M6.08776 0C3.13976 0 0.75 2.38984 0.75 5.33776C0.75 8.28575 3.13976 10.6757 6.08776 10.6757C9.03575 10.6757 11.4255 8.28575 11.4255 5.33776C11.4255 2.38984 9.03575 0 6.08776 0ZM6.08776 7.54442C4.86916 7.54442 3.88125 6.55643 3.88125 5.33783C3.88125 4.11923 4.86916 3.13132 6.08776 3.13132C7.30635 3.13132 8.29427 4.11923 8.29427 5.33783C8.29427 6.55643 7.30635 7.54442 6.08776 7.54442Z" fill="#003458"/>
<path d="M7.97135 14.9227C10.1083 14.4874 11.3888 13.4754 11.4566 13.4211C12.0819 12.9197 12.1823 12.0062 11.6808 11.3808C11.1794 10.7555 10.2661 10.6551 9.64063 11.1565C9.62742 11.1672 8.26162 12.2149 6.0144 12.2164C3.76725 12.2149 2.37258 11.1672 2.35937 11.1565C1.73391 10.6551 0.820554 10.7555 0.319152 11.3808C-0.182328 12.0062 -0.0818787 12.9197 0.543424 13.4211C0.612095 13.4762 1.9455 14.5145 4.14231 14.9396L1.08065 18.1393C0.524251 18.7163 0.540979 19.6351 1.11801 20.1915C1.39964 20.4631 1.76263 20.5981 2.12532 20.5981C2.50557 20.5981 2.88544 20.4495 3.17021 20.1541L6.01448 17.1242L9.14603 20.1737C9.71343 20.7402 10.6322 20.7393 11.1985 20.1721C11.7649 19.6049 11.7642 18.6859 11.1969 18.1196L7.97135 14.9227Z" fill="#003458"/>
</svg>
