<svg width="40" height="40" viewBox="0 0 40 40" fill="none" xmlns="http://www.w3.org/2000/svg">
<path d="M0 3C0 1.34315 1.34315 0 3 0H29.1222C30.3058 0 31.3788 0.695924 31.8614 1.77665L39.4537 18.7767C39.8013 19.5552 39.8013 20.4448 39.4536 21.2233L31.8614 38.2234C31.3788 39.3041 30.3058 40 29.1222 40H3C1.34315 40 0 38.6569 0 37V3Z" fill="#2D7AC1"/>
<path fill-rule="evenodd" clip-rule="evenodd" d="M6.43784 18.482C12.0738 16.0415 15.8258 14.4199 17.7098 13.6331C23.0721 11.4014 24.1992 11.0161 24.9239 11C25.0849 11 25.4392 11.0321 25.6807 11.2248C25.8739 11.3853 25.9222 11.5941 25.9545 11.7546C25.9867 11.9152 26.0189 12.2523 25.9867 12.5092C25.6968 15.5598 24.4408 22.9615 23.7967 26.3653C23.5229 27.8104 22.9915 28.292 22.4762 28.3402C21.349 28.4365 20.4956 27.6016 19.4167 26.8952C17.7098 25.7873 16.7597 25.0969 15.1012 24.0051C13.1849 22.7528 14.4248 22.0624 15.5198 20.9385C15.8097 20.6495 20.7532 16.1539 20.8499 15.7525C20.866 15.7043 20.866 15.5117 20.7532 15.4153C20.6405 15.319 20.4795 15.3511 20.3507 15.3832C20.1735 15.4153 17.4683 17.2136 12.2027 20.7619C11.4297 21.2917 10.7373 21.5486 10.1093 21.5326C9.41686 21.5165 8.09643 21.1472 7.09806 20.8261C5.89035 20.4408 4.92418 20.232 5.00469 19.5577C5.053 19.2045 5.53608 18.8513 6.43784 18.482Z" fill="white"/>
</svg>
