<svg width="40" height="40" viewBox="0 0 40 40" fill="none" xmlns="http://www.w3.org/2000/svg">
<path d="M0 3C0 1.34315 1.34315 0 3 0H29.1222C30.3058 0 31.3788 0.695924 31.8614 1.77665L39.4537 18.7767C39.8013 19.5552 39.8013 20.4448 39.4536 21.2233L31.8614 38.2234C31.3788 39.3041 30.3058 40 29.1222 40H3C1.34315 40 0 38.6569 0 37V3Z" fill="#7E2EC0"/>
<path d="M26.0534 11.2139C25.4891 10.7089 23.2316 9.0455 18.1523 9.0158C18.1523 9.0158 12.1819 8.65935 9.27092 11.3327C7.63722 12.9664 7.07285 15.313 7.01345 18.2536C6.95404 21.1943 6.86494 26.6894 12.1819 28.2043V30.4915C12.1819 30.4915 12.1522 31.4123 12.7462 31.5905C13.4888 31.8281 13.9047 31.1153 14.6176 30.3727C15.0037 29.9568 15.5384 29.3627 15.9245 28.8875C19.5484 29.1845 22.3405 28.5013 22.6672 28.3825C23.4098 28.1449 27.5386 27.6102 28.2218 22.1151C28.9347 16.412 27.9248 12.8179 26.0534 11.2139ZM26.6772 21.6695C26.1128 26.2736 22.7563 26.5706 22.1326 26.7488C21.8652 26.8379 19.4295 27.432 16.3404 27.2538C16.3404 27.2538 14.0532 30.0162 13.3106 30.7588C13.1918 30.8776 13.073 30.9073 12.9839 30.9073C12.8651 30.8776 12.8353 30.7291 12.8353 30.5212C12.8353 30.2241 12.8651 26.7191 12.8651 26.7191C8.37982 25.4716 8.64715 20.7784 8.67685 18.313C8.73626 15.8476 9.18182 13.8575 10.5482 12.4911C13.0136 10.2633 18.0929 10.5901 18.0929 10.5901C22.3702 10.6198 24.4197 11.897 24.895 12.3426C26.4396 13.709 27.2416 16.9467 26.6772 21.6695Z" fill="white"/>
<path fill-rule="evenodd" clip-rule="evenodd" d="M18.1334 16.3325C18.1446 16.1253 18.3216 15.9664 18.5288 15.9776C19.1413 16.0107 19.6593 16.1967 20.0305 16.5824C20.3996 16.9658 20.5739 17.4954 20.6066 18.1153C20.6175 18.3225 20.4583 18.4993 20.2511 18.5102C20.0439 18.5211 19.8671 18.362 19.8562 18.1548C19.8294 17.6459 19.6919 17.3141 19.4891 17.1034C19.2885 16.895 18.9748 16.7542 18.4882 16.7279C18.2811 16.7167 18.1222 16.5397 18.1334 16.3325Z" fill="white"/>
<path fill-rule="evenodd" clip-rule="evenodd" d="M17.7473 14.7793C17.7636 14.5724 17.9445 14.418 18.1514 14.4343C19.3536 14.5292 20.3413 14.9458 21.0722 15.7431L21.0727 15.7437C21.7671 16.5043 22.1239 17.4922 22.0916 18.6218C22.0857 18.8292 21.9128 18.9925 21.7053 18.9866C21.4979 18.9806 21.3346 18.8077 21.3405 18.6003C21.3677 17.6506 21.071 16.8564 20.518 16.2506C19.9419 15.6222 19.1474 15.2667 18.0922 15.1834C17.8854 15.167 17.7309 14.9861 17.7473 14.7793Z" fill="white"/>
<path fill-rule="evenodd" clip-rule="evenodd" d="M17.1816 13.3527C17.1816 13.1453 17.3498 12.9771 17.5573 12.9771C19.2538 12.9771 20.6861 13.5462 21.8294 14.6577C22.9834 15.7797 23.5769 17.3091 23.5769 19.2046C23.5769 19.4121 23.4087 19.5803 23.2012 19.5803C22.9937 19.5803 22.8255 19.4121 22.8255 19.2046C22.8255 17.4761 22.2902 16.1538 21.3056 15.1965C20.3102 14.2287 19.069 13.7284 17.5573 13.7284C17.3498 13.7284 17.1816 13.5602 17.1816 13.3527Z" fill="white"/>
<path d="M18.5697 21.9666C18.5697 21.9666 18.9855 21.9963 19.1935 21.729L19.6093 21.1943C19.8173 20.927 20.2925 20.7488 20.7975 21.0161C21.0648 21.1646 21.5401 21.4616 21.8371 21.6993C22.1638 21.9369 22.8173 22.4716 22.8173 22.4716C23.144 22.7389 23.2035 23.1251 22.9955 23.5409C22.7876 23.9271 22.4906 24.2835 22.1044 24.6102C21.8074 24.8776 21.5104 24.9964 21.2133 25.0558H21.0945C20.9757 25.0558 20.8272 25.0261 20.7084 24.9964C20.2628 24.8776 19.5202 24.5508 18.243 23.8676C17.441 23.4221 16.7578 22.9468 16.1934 22.5013C15.8964 22.2636 15.5696 21.9963 15.2726 21.6696L15.1538 21.5508C14.8271 21.224 14.5597 20.927 14.3221 20.63C13.8765 20.0656 13.4013 19.3824 12.9557 18.5804C12.2725 17.3329 11.9458 16.5903 11.827 16.115C11.7973 15.9962 11.7676 15.8774 11.7676 15.7289V15.61C11.7973 15.313 11.9458 15.016 12.2131 14.7189C12.5399 14.3625 12.8963 14.0655 13.2825 13.8278C13.6983 13.6199 14.0845 13.6793 14.3518 14.0061C14.3518 14.0061 14.8865 14.6595 15.1241 14.9863C15.332 15.2833 15.629 15.7586 15.8073 16.0259C16.0746 16.5012 15.8964 17.0061 15.6587 17.214L15.1241 17.6299C14.8568 17.8378 14.8865 18.2537 14.8865 18.2537C14.8865 18.2537 15.6291 21.1943 18.5697 21.9666Z" fill="white"/>
</svg>
