<svg width="40" height="40" viewBox="0 0 40 40" fill="none" xmlns="http://www.w3.org/2000/svg">
<path d="M0 3C0 1.34315 1.34315 0 3 0H29.1222C30.3058 0 31.3788 0.695924 31.8614 1.77665L39.4537 18.7767C39.8013 19.5552 39.8013 20.4448 39.4536 21.2233L31.8614 38.2234C31.3788 39.3041 30.3058 40 29.1222 40H3C1.34315 40 0 38.6569 0 37V3Z" fill="#29A644"/>
<path d="M8.08783 19.4058C8.08719 21.2397 8.56852 23.0301 9.48347 24.6081L8 30L13.543 28.5531C15.0702 29.3823 16.7896 29.8192 18.5395 29.8199H18.544C24.3064 29.8199 28.9976 25.1511 29 19.4139C29.001 16.6331 27.9142 14.0187 25.9402 12.0518C23.966 10.085 21.3409 9.0012 18.544 9C12.7804 9 8.09006 13.6679 8.08765 19.4055L8.08783 19.4058ZM11.3885 24.3362L11.1816 24.009C10.3116 22.6319 9.85235 21.0403 9.85298 19.4063C9.85488 14.6375 13.7533 10.7576 18.547 10.7576C20.8685 10.7585 23.0502 11.6594 24.6913 13.2941C26.3322 14.9289 27.2351 17.102 27.2345 19.413C27.2324 24.182 23.3338 28.0623 18.5438 28.0623H18.5404C16.9807 28.0614 15.4511 27.6446 14.1171 26.8565L13.7996 26.6692L10.5102 27.5278L11.3885 24.3362ZM18.544 29.8199H18.5441H18.544C18.5439 29.8199 18.5438 29.8199 18.544 29.8199Z" fill="white"/>
<path fill-rule="evenodd" clip-rule="evenodd" d="M15.6992 15.4181C15.489 15.0205 15.2679 15.0125 15.068 15.0055C14.9044 14.9996 14.7174 15 14.5305 15C14.3434 15 14.0395 15.0598 13.7826 15.2987C13.5254 15.5376 12.8008 16.1152 12.8008 17.2899C12.8008 18.4647 13.806 19.5998 13.946 19.7592C14.0863 19.9184 15.8865 22.4061 18.7372 23.3631C21.1067 24.1584 21.5888 24.0003 22.1031 23.9604C22.6173 23.9207 23.7626 23.383 23.9963 22.8255C24.23 22.268 24.23 21.7901 24.16 21.6904C24.0899 21.5908 23.9028 21.5311 23.6223 21.4118C23.3417 21.2924 21.9628 20.7147 21.7057 20.635C21.4485 20.5554 21.2616 20.5157 21.0745 20.7547C20.8875 20.9935 20.3503 21.5311 20.1866 21.6904C20.023 21.8499 19.8593 21.8698 19.5789 21.7504C19.2983 21.6306 18.3949 21.3787 17.3232 20.5654C16.4894 19.9326 15.9265 19.151 15.7628 18.912C15.5992 18.6732 15.7453 18.5439 15.886 18.4249C16.012 18.3179 16.1665 18.1461 16.3068 18.0068C16.4468 17.8673 16.4935 17.7678 16.587 17.6085C16.6806 17.4492 16.6338 17.3097 16.5637 17.1903C16.4935 17.0709 15.9484 15.8902 15.699 15.4181" fill="white"/>
</svg>
