<svg width="40" height="40" viewBox="0 0 40 40" fill="none" xmlns="http://www.w3.org/2000/svg">
<path d="M0 3C0 1.34315 1.34315 0 3 0H29.1222C30.3058 0 31.3788 0.695924 31.8614 1.77665L39.4536 18.7767C39.8013 19.5552 39.8013 20.4448 39.4536 21.2233L31.8614 38.2234C31.3788 39.3041 30.3058 40 29.1222 40H3C1.34315 40 0 38.6569 0 37V3Z" fill="#CD0921"/>
<path d="M23.5 30.058H19.6893V11.196H17.9876C14.8719 11.196 13.2421 12.7538 13.2421 15.0786C13.2421 17.715 14.3686 18.9373 16.6934 20.4952L18.6107 21.7894L13.0983 30.058H9L13.9612 22.6761C11.1091 20.639 9.50331 18.6497 9.50331 15.2943C9.50331 11.1001 12.4273 8.24805 17.9636 8.24805H23.476V30.058H23.5Z" fill="white"/>
</svg>
